<?xml version="1.0" encoding="UTF-8" standalone="no"?>
<!DOCTYPE svg PUBLIC "-//W3C//DTD SVG 1.1//EN"
 "http://www.w3.org/Graphics/SVG/1.1/DTD/svg11.dtd">
<!-- Generated by graphviz version 12.2.1 (0)
 -->
<!-- Pages: 1 -->
<svg width="1867pt" height="223pt"
 viewBox="0.00 0.00 1867.12 222.50" xmlns="http://www.w3.org/2000/svg" xmlns:xlink="http://www.w3.org/1999/xlink">
<g id="graph0" class="graph" transform="scale(1 1) rotate(0) translate(4 218.5)">
<polygon fill="white" stroke="none" points="-4,4 -4,-218.5 1863.12,-218.5 1863.12,4 -4,4"/>
<!-- kh:schematicRelation_14 -->
<g id="node1" class="node">
<title>kh:schematicRelation_14</title>
<polygon fill="none" stroke="#b27c7c" points="272.25,-214.5 78.5,-214.5 78.5,-178.5 272.25,-178.5 272.25,-214.5"/>
<text text-anchor="middle" x="175.38" y="-191.82" font-family="Times,serif" font-size="14.00">kh:schematicRelation_14</text>
</g>
<!-- kh:Ended -->
<g id="node2" class="node">
<title>kh:Ended</title>
<polygon fill="none" stroke="#b27c7c" points="389.12,-125.25 305.62,-125.25 305.62,-89.25 389.12,-89.25 389.12,-125.25"/>
<text text-anchor="middle" x="347.38" y="-102.58" font-family="Times,serif" font-size="14.00">kh:Ended</text>
</g>
<!-- kh:schematicRelation_14&#45;&gt;kh:Ended -->
<g id="edge1" class="edge">
<title>kh:schematicRelation_14&#45;&gt;kh:Ended</title>
<path fill="none" stroke="black" d="M170.53,-178.08C168.53,-166.9 168.25,-152.75 176.12,-143.25 190.95,-125.35 249.34,-116.34 293.85,-111.99"/>
<polygon fill="black" stroke="black" points="293.98,-115.5 303.62,-111.1 293.34,-108.52 293.98,-115.5"/>
<text text-anchor="middle" x="226.75" y="-147.2" font-family="Times,serif" font-size="14.00">kh:eventMode</text>
</g>
<!-- owl:NamedIndividual -->
<g id="node5" class="node">
<title>owl:NamedIndividual</title>
<polygon fill="none" stroke="#b27c7c" points="802.12,-36 634.62,-36 634.62,0 802.12,0 802.12,-36"/>
<text text-anchor="middle" x="718.38" y="-13.32" font-family="Times,serif" font-size="14.00">owl:NamedIndividual</text>
</g>
<!-- kh:schematicRelation_14&#45;&gt;owl:NamedIndividual -->
<g id="edge3" class="edge">
<title>kh:schematicRelation_14&#45;&gt;owl:NamedIndividual</title>
<path fill="none" stroke="black" d="M166.72,-178.25C162.68,-167.67 159.85,-154.12 165.38,-143.25 183.82,-106.95 201.68,-104.65 239.38,-89.25 390.73,-27.42 441.62,-59.79 603.38,-36 609.77,-35.06 616.37,-34.09 623.01,-33.11"/>
<polygon fill="black" stroke="black" points="623.34,-36.6 632.72,-31.68 622.32,-29.67 623.34,-36.6"/>
<text text-anchor="middle" x="267.88" y="-102.58" font-family="Times,serif" font-size="14.00">rdf:type</text>
</g>
<!-- kh:apple_27 -->
<g id="node6" class="node">
<title>kh:apple_27</title>
<polygon fill="none" stroke="#b27c7c" points="913.12,-125.25 811.62,-125.25 811.62,-89.25 913.12,-89.25 913.12,-125.25"/>
<text text-anchor="middle" x="862.38" y="-102.58" font-family="Times,serif" font-size="14.00">kh:apple_27</text>
</g>
<!-- kh:schematicRelation_14&#45;&gt;kh:apple_27 -->
<g id="edge10" class="edge">
<title>kh:schematicRelation_14&#45;&gt;kh:apple_27</title>
<path fill="none" stroke="black" d="M272.59,-192.08C397.39,-187.11 606.84,-176.7 682.38,-160.5 704.03,-155.86 708,-149.9 729.12,-143.25 731.01,-142.66 766.48,-133.34 800.35,-124.47"/>
<polygon fill="black" stroke="black" points="800.99,-127.92 809.78,-122 799.22,-121.15 800.99,-127.92"/>
<text text-anchor="middle" x="784.25" y="-147.2" font-family="Times,serif" font-size="14.00">kh:hasOccluder</text>
</g>
<!-- kh:knife_70 -->
<g id="node7" class="node">
<title>kh:knife_70</title>
<polygon fill="none" stroke="#b27c7c" points="607.25,-125.25 509.5,-125.25 509.5,-89.25 607.25,-89.25 607.25,-125.25"/>
<text text-anchor="middle" x="558.38" y="-102.58" font-family="Times,serif" font-size="14.00">kh:knife_70</text>
</g>
<!-- kh:schematicRelation_14&#45;&gt;kh:knife_70 -->
<g id="edge12" class="edge">
<title>kh:schematicRelation_14&#45;&gt;kh:knife_70</title>
<path fill="none" stroke="black" d="M236.26,-178.04C250.12,-173.13 264.54,-167.26 277.38,-160.5 288.76,-154.51 288.71,-148.1 300.62,-143.25 318.5,-135.97 427.48,-122.8 497.89,-114.86"/>
<polygon fill="black" stroke="black" points="498.22,-118.34 507.76,-113.75 497.44,-111.39 498.22,-118.34"/>
<text text-anchor="middle" x="356.5" y="-147.2" font-family="Times,serif" font-size="14.00">kh:hasOccludee</text>
</g>
<!-- kh:Occlusion -->
<g id="node12" class="node">
<title>kh:Occlusion</title>
<polygon fill="none" stroke="#b27c7c" points="106.75,-125.25 0,-125.25 0,-89.25 106.75,-89.25 106.75,-125.25"/>
<text text-anchor="middle" x="53.38" y="-102.58" font-family="Times,serif" font-size="14.00">kh:Occlusion</text>
</g>
<!-- kh:schematicRelation_14&#45;&gt;kh:Occlusion -->
<g id="edge8" class="edge">
<title>kh:schematicRelation_14&#45;&gt;kh:Occlusion</title>
<path fill="none" stroke="black" d="M96.94,-178.05C87.52,-173.5 78.68,-167.75 71.38,-160.5 64.84,-154.01 60.68,-145.05 58.02,-136.38"/>
<polygon fill="black" stroke="black" points="61.47,-135.73 55.69,-126.84 54.67,-137.39 61.47,-135.73"/>
<text text-anchor="middle" x="99.88" y="-147.2" font-family="Times,serif" font-size="14.00">rdf:type</text>
</g>
<!-- kh:hasPenetree -->
<g id="node3" class="node">
<title>kh:hasPenetree</title>
<polygon fill="none" stroke="#b27c7c" points="1269.5,-214.5 1143.25,-214.5 1143.25,-178.5 1269.5,-178.5 1269.5,-214.5"/>
<text text-anchor="middle" x="1206.38" y="-191.82" font-family="Times,serif" font-size="14.00">kh:hasPenetree</text>
</g>
<!-- owl:ObjectProperty -->
<g id="node4" class="node">
<title>owl:ObjectProperty</title>
<polygon fill="none" stroke="#b27c7c" points="1503.75,-125.25 1349,-125.25 1349,-89.25 1503.75,-89.25 1503.75,-125.25"/>
<text text-anchor="middle" x="1426.38" y="-102.58" font-family="Times,serif" font-size="14.00">owl:ObjectProperty</text>
</g>
<!-- kh:hasPenetree&#45;&gt;owl:ObjectProperty -->
<g id="edge2" class="edge">
<title>kh:hasPenetree&#45;&gt;owl:ObjectProperty</title>
<path fill="none" stroke="black" d="M1241.62,-178.12C1263.93,-167.42 1293.53,-153.8 1320.38,-143.25 1332.71,-138.41 1346.01,-133.65 1358.89,-129.29"/>
<polygon fill="black" stroke="black" points="1359.76,-132.69 1368.14,-126.2 1357.54,-126.05 1359.76,-132.69"/>
<text text-anchor="middle" x="1348.88" y="-147.2" font-family="Times,serif" font-size="14.00">rdf:type</text>
</g>
<!-- kh:apple_27&#45;&gt;owl:NamedIndividual -->
<g id="edge4" class="edge">
<title>kh:apple_27&#45;&gt;owl:NamedIndividual</title>
<path fill="none" stroke="black" d="M828.65,-88.84C818.49,-83.39 807.38,-77.24 797.38,-71.25 782.5,-62.35 766.48,-51.92 752.78,-42.73"/>
<polygon fill="black" stroke="black" points="754.76,-39.85 744.52,-37.14 750.84,-45.64 754.76,-39.85"/>
<text text-anchor="middle" x="825.88" y="-57.95" font-family="Times,serif" font-size="14.00">rdf:type</text>
</g>
<!-- kh:apple -->
<g id="node17" class="node">
<title>kh:apple</title>
<polygon fill="none" stroke="#b27c7c" points="896.75,-36 820,-36 820,0 896.75,0 896.75,-36"/>
<text text-anchor="middle" x="858.38" y="-13.32" font-family="Times,serif" font-size="14.00">kh:apple</text>
</g>
<!-- kh:apple_27&#45;&gt;kh:apple -->
<g id="edge17" class="edge">
<title>kh:apple_27&#45;&gt;kh:apple</title>
<path fill="none" stroke="black" d="M860.65,-88.82C860.16,-83.21 859.67,-76.97 859.38,-71.25 858.98,-63.64 858.73,-55.4 858.58,-47.76"/>
<polygon fill="black" stroke="black" points="862.09,-47.89 858.44,-37.94 855.09,-47.99 862.09,-47.89"/>
<text text-anchor="middle" x="887.88" y="-57.95" font-family="Times,serif" font-size="14.00">rdf:type</text>
</g>
<!-- kh:knife_70&#45;&gt;owl:NamedIndividual -->
<g id="edge21" class="edge">
<title>kh:knife_70&#45;&gt;owl:NamedIndividual</title>
<path fill="none" stroke="black" d="M590.37,-88.8C615.11,-75.31 649.58,-56.51 676.52,-41.83"/>
<polygon fill="black" stroke="black" points="678,-45 685.11,-37.14 674.65,-38.86 678,-45"/>
<text text-anchor="middle" x="681.21" y="-57.95" font-family="Times,serif" font-size="14.00">rdf:type</text>
</g>
<!-- kh:knife -->
<g id="node8" class="node">
<title>kh:knife</title>
<polygon fill="none" stroke="#b27c7c" points="594.88,-36 521.88,-36 521.88,0 594.88,0 594.88,-36"/>
<text text-anchor="middle" x="558.38" y="-13.32" font-family="Times,serif" font-size="14.00">kh:knife</text>
</g>
<!-- kh:knife_70&#45;&gt;kh:knife -->
<g id="edge5" class="edge">
<title>kh:knife_70&#45;&gt;kh:knife</title>
<path fill="none" stroke="black" d="M558.38,-89.01C558.38,-77.18 558.38,-61.2 558.38,-47.5"/>
<polygon fill="black" stroke="black" points="561.88,-47.72 558.38,-37.72 554.88,-47.72 561.88,-47.72"/>
<text text-anchor="middle" x="586.88" y="-57.95" font-family="Times,serif" font-size="14.00">rdf:type</text>
</g>
<!-- kh:image_0 -->
<g id="node9" class="node">
<title>kh:image_0</title>
<polygon fill="none" stroke="#b27c7c" points="1047.88,-125.25 950.88,-125.25 950.88,-89.25 1047.88,-89.25 1047.88,-125.25"/>
<text text-anchor="middle" x="999.38" y="-102.58" font-family="Times,serif" font-size="14.00">kh:image_0</text>
</g>
<!-- kh:image_0&#45;&gt;owl:NamedIndividual -->
<g id="edge15" class="edge">
<title>kh:image_0&#45;&gt;owl:NamedIndividual</title>
<path fill="none" stroke="black" d="M972.83,-88.81C950.92,-74.54 922.46,-56.33 916.38,-54 875.27,-38.25 860.14,-43.36 813.63,-36.26"/>
<polygon fill="black" stroke="black" points="814.45,-32.85 804.01,-34.67 813.31,-39.75 814.45,-32.85"/>
<text text-anchor="middle" x="973.9" y="-57.95" font-family="Times,serif" font-size="14.00">rdf:type</text>
</g>
<!-- kh:Image -->
<g id="node10" class="node">
<title>kh:Image</title>
<polygon fill="none" stroke="#b27c7c" points="1145.38,-36 1063.38,-36 1063.38,0 1145.38,0 1145.38,-36"/>
<text text-anchor="middle" x="1104.38" y="-13.32" font-family="Times,serif" font-size="14.00">kh:Image</text>
</g>
<!-- kh:image_0&#45;&gt;kh:Image -->
<g id="edge6" class="edge">
<title>kh:image_0&#45;&gt;kh:Image</title>
<path fill="none" stroke="black" d="M1048.05,-89.42C1057.82,-84.57 1067.49,-78.56 1075.38,-71.25 1082.73,-64.43 1088.67,-55.31 1093.2,-46.59"/>
<polygon fill="black" stroke="black" points="1096.29,-48.26 1097.4,-37.72 1089.96,-45.26 1096.29,-48.26"/>
<text text-anchor="middle" x="1117.05" y="-57.95" font-family="Times,serif" font-size="14.00">rdf:type</text>
</g>
<!-- 9.72 -->
<g id="node11" class="node">
<title>9.72</title>
<polygon fill="none" stroke="#b27c7c" points="1045.38,-36 991.38,-36 991.38,0 1045.38,0 1045.38,-36"/>
<text text-anchor="middle" x="1018.38" y="-13.32" font-family="Times,serif" font-size="14.00">9.72</text>
</g>
<!-- kh:image_0&#45;&gt;9.72 -->
<g id="edge7" class="edge">
<title>kh:image_0&#45;&gt;9.72</title>
<path fill="none" stroke="black" d="M1003.13,-89.01C1005.73,-77.06 1009.25,-60.88 1012.26,-47.08"/>
<polygon fill="black" stroke="black" points="1015.6,-48.2 1014.31,-37.68 1008.76,-46.71 1015.6,-48.2"/>
<text text-anchor="middle" x="1040.95" y="-57.95" font-family="Times,serif" font-size="14.00">kh:hasId</text>
</g>
<!-- kh:hasOccluder -->
<g id="node13" class="node">
<title>kh:hasOccluder</title>
<polygon fill="none" stroke="#b27c7c" points="1413.5,-214.5 1287.25,-214.5 1287.25,-178.5 1413.5,-178.5 1413.5,-214.5"/>
<text text-anchor="middle" x="1350.38" y="-191.82" font-family="Times,serif" font-size="14.00">kh:hasOccluder</text>
</g>
<!-- kh:hasOccluder&#45;&gt;owl:ObjectProperty -->
<g id="edge9" class="edge">
<title>kh:hasOccluder&#45;&gt;owl:ObjectProperty</title>
<path fill="none" stroke="black" d="M1365.39,-178.26C1376.42,-165.6 1391.6,-148.17 1404.05,-133.88"/>
<polygon fill="black" stroke="black" points="1406.47,-136.43 1410.4,-126.59 1401.19,-131.83 1406.47,-136.43"/>
<text text-anchor="middle" x="1423.68" y="-147.2" font-family="Times,serif" font-size="14.00">rdf:type</text>
</g>
<!-- kh:schematicRelation_15 -->
<g id="node14" class="node">
<title>kh:schematicRelation_15</title>
<polygon fill="none" stroke="#b27c7c" points="926.25,-214.5 732.5,-214.5 732.5,-178.5 926.25,-178.5 926.25,-214.5"/>
<text text-anchor="middle" x="829.38" y="-191.82" font-family="Times,serif" font-size="14.00">kh:schematicRelation_15</text>
</g>
<!-- kh:schematicRelation_15&#45;&gt;kh:Ended -->
<g id="edge16" class="edge">
<title>kh:schematicRelation_15&#45;&gt;kh:Ended</title>
<path fill="none" stroke="black" d="M732.22,-190.91C636.93,-185.64 498.66,-175.7 447.12,-160.5 443.92,-159.55 415.64,-144.69 390.01,-131.06"/>
<polygon fill="black" stroke="black" points="391.81,-128.05 381.34,-126.44 388.52,-134.23 391.81,-128.05"/>
<text text-anchor="middle" x="497.75" y="-147.2" font-family="Times,serif" font-size="14.00">kh:eventMode</text>
</g>
<!-- kh:schematicRelation_15&#45;&gt;owl:NamedIndividual -->
<g id="edge11" class="edge">
<title>kh:schematicRelation_15&#45;&gt;owl:NamedIndividual</title>
<path fill="none" stroke="black" d="M829.06,-178.24C827.93,-166.84 824.59,-152.37 815.38,-143.25 792.55,-120.65 768.06,-148 745.38,-125.25 725.03,-104.84 719.3,-71.41 718.02,-47.49"/>
<polygon fill="black" stroke="black" points="721.53,-47.7 717.75,-37.81 714.53,-47.9 721.53,-47.7"/>
<text text-anchor="middle" x="773.88" y="-102.58" font-family="Times,serif" font-size="14.00">rdf:type</text>
</g>
<!-- kh:schematicRelation_15&#45;&gt;kh:apple_27 -->
<g id="edge18" class="edge">
<title>kh:schematicRelation_15&#45;&gt;kh:apple_27</title>
<path fill="none" stroke="black" d="M835.89,-178.26C840.46,-166.19 846.66,-149.81 851.91,-135.92"/>
<polygon fill="black" stroke="black" points="855.07,-137.46 855.33,-126.87 848.52,-134.98 855.07,-137.46"/>
<text text-anchor="middle" x="903.96" y="-147.2" font-family="Times,serif" font-size="14.00">kh:hasPenetree</text>
</g>
<!-- kh:schematicRelation_15&#45;&gt;kh:knife_70 -->
<g id="edge13" class="edge">
<title>kh:schematicRelation_15&#45;&gt;kh:knife_70</title>
<path fill="none" stroke="black" d="M732.24,-195.81C664.39,-193.73 582.04,-185.8 559.38,-160.5 553.63,-154.09 552.01,-145.25 552.24,-136.67"/>
<polygon fill="black" stroke="black" points="555.7,-137.2 553.32,-126.88 548.74,-136.43 555.7,-137.2"/>
<text text-anchor="middle" x="620.88" y="-147.2" font-family="Times,serif" font-size="14.00">kh:hasPenetrator</text>
</g>
<!-- kh:Penetration -->
<g id="node18" class="node">
<title>kh:Penetration</title>
<polygon fill="none" stroke="#b27c7c" points="1186.88,-125.25 1065.88,-125.25 1065.88,-89.25 1186.88,-89.25 1186.88,-125.25"/>
<text text-anchor="middle" x="1126.38" y="-102.58" font-family="Times,serif" font-size="14.00">kh:Penetration</text>
</g>
<!-- kh:schematicRelation_15&#45;&gt;kh:Penetration -->
<g id="edge19" class="edge">
<title>kh:schematicRelation_15&#45;&gt;kh:Penetration</title>
<path fill="none" stroke="black" d="M899.12,-178.05C919.86,-172.66 942.59,-166.54 963.38,-160.5 996.67,-150.82 1033.47,-139.11 1063.67,-129.24"/>
<polygon fill="black" stroke="black" points="1064.63,-132.6 1073.04,-126.16 1062.45,-125.95 1064.63,-132.6"/>
<text text-anchor="middle" x="1045.92" y="-147.2" font-family="Times,serif" font-size="14.00">rdf:type</text>
</g>
<!-- kh:hasId -->
<g id="node15" class="node">
<title>kh:hasId</title>
<polygon fill="none" stroke="#b27c7c" points="1810.75,-214.5 1734,-214.5 1734,-178.5 1810.75,-178.5 1810.75,-214.5"/>
<text text-anchor="middle" x="1772.38" y="-191.82" font-family="Times,serif" font-size="14.00">kh:hasId</text>
</g>
<!-- owl:DatatypeProperty -->
<g id="node16" class="node">
<title>owl:DatatypeProperty</title>
<polygon fill="none" stroke="#b27c7c" points="1859.12,-125.25 1685.62,-125.25 1685.62,-89.25 1859.12,-89.25 1859.12,-125.25"/>
<text text-anchor="middle" x="1772.38" y="-102.58" font-family="Times,serif" font-size="14.00">owl:DatatypeProperty</text>
</g>
<!-- kh:hasId&#45;&gt;owl:DatatypeProperty -->
<g id="edge14" class="edge">
<title>kh:hasId&#45;&gt;owl:DatatypeProperty</title>
<path fill="none" stroke="black" d="M1772.38,-178.26C1772.38,-166.43 1772.38,-150.45 1772.38,-136.75"/>
<polygon fill="black" stroke="black" points="1775.88,-136.97 1772.38,-126.97 1768.88,-136.97 1775.88,-136.97"/>
<text text-anchor="middle" x="1800.88" y="-147.2" font-family="Times,serif" font-size="14.00">rdf:type</text>
</g>
<!-- kh:hasPenetrator -->
<g id="node19" class="node">
<title>kh:hasPenetrator</title>
<polygon fill="none" stroke="#b27c7c" points="1570.88,-214.5 1431.88,-214.5 1431.88,-178.5 1570.88,-178.5 1570.88,-214.5"/>
<text text-anchor="middle" x="1501.38" y="-191.82" font-family="Times,serif" font-size="14.00">kh:hasPenetrator</text>
</g>
<!-- kh:hasPenetrator&#45;&gt;owl:ObjectProperty -->
<g id="edge20" class="edge">
<title>kh:hasPenetrator&#45;&gt;owl:ObjectProperty</title>
<path fill="none" stroke="black" d="M1486.56,-178.26C1475.67,-165.6 1460.69,-148.17 1448.41,-133.88"/>
<polygon fill="black" stroke="black" points="1451.32,-131.9 1442.15,-126.6 1446.01,-136.46 1451.32,-131.9"/>
<text text-anchor="middle" x="1499.09" y="-147.2" font-family="Times,serif" font-size="14.00">rdf:type</text>
</g>
<!-- kh:hasOccludee -->
<g id="node20" class="node">
<title>kh:hasOccludee</title>
<polygon fill="none" stroke="#b27c7c" points="1716.25,-214.5 1588.5,-214.5 1588.5,-178.5 1716.25,-178.5 1716.25,-214.5"/>
<text text-anchor="middle" x="1652.38" y="-191.82" font-family="Times,serif" font-size="14.00">kh:hasOccludee</text>
</g>
<!-- kh:hasOccludee&#45;&gt;owl:ObjectProperty -->
<g id="edge22" class="edge">
<title>kh:hasOccludee&#45;&gt;owl:ObjectProperty</title>
<path fill="none" stroke="black" d="M1614.3,-178.06C1590.64,-167.47 1559.49,-153.98 1531.38,-143.25 1518.89,-138.48 1505.45,-133.73 1492.48,-129.32"/>
<polygon fill="black" stroke="black" points="1493.76,-126.06 1483.16,-126.2 1491.53,-132.7 1493.76,-126.06"/>
<text text-anchor="middle" x="1600.2" y="-147.2" font-family="Times,serif" font-size="14.00">rdf:type</text>
</g>
</g>
</svg>
