<?xml version="1.0" encoding="UTF-8" standalone="no"?>
<!DOCTYPE svg PUBLIC "-//W3C//DTD SVG 1.1//EN"
 "http://www.w3.org/Graphics/SVG/1.1/DTD/svg11.dtd">
<!-- Generated by graphviz version 2.43.0 (0)
 -->
<!-- Title: %3 Pages: 1 -->
<svg width="1700pt" height="218pt"
 viewBox="0.00 0.00 1699.50 218.00" xmlns="http://www.w3.org/2000/svg" xmlns:xlink="http://www.w3.org/1999/xlink">
<g id="graph0" class="graph" transform="scale(1 1) rotate(0) translate(4 214)">
<title>%3</title>
<polygon fill="white" stroke="transparent" points="-4,4 -4,-214 1695.5,-214 1695.5,4 -4,4"/>
<!-- kh:schematicRelation_108 -->
<g id="node1" class="node">
<title>kh:schematicRelation_108</title>
<polygon fill="none" stroke="#b27c7c" points="512,-210 309,-210 309,-174 512,-174 512,-210"/>
<text text-anchor="middle" x="410.5" y="-188.3" font-family="Times,serif" font-size="14.00">kh:schematicRelation_108</text>
</g>
<!-- kh:dog_13 -->
<g id="node2" class="node">
<title>kh:dog_13</title>
<polygon fill="none" stroke="#b27c7c" points="727,-123 638,-123 638,-87 727,-87 727,-123"/>
<text text-anchor="middle" x="682.5" y="-101.3" font-family="Times,serif" font-size="14.00">kh:dog_13</text>
</g>
<!-- kh:schematicRelation_108&#45;&gt;kh:dog_13 -->
<g id="edge1" class="edge">
<title>kh:schematicRelation_108&#45;&gt;kh:dog_13</title>
<path fill="none" stroke="black" d="M512.08,-174.6C531.86,-169.79 552.14,-163.69 570.5,-156 581.76,-151.29 582.65,-146.6 593.5,-141 604.45,-135.35 616.53,-130.03 628.17,-125.33"/>
<polygon fill="black" stroke="black" points="629.78,-128.46 637.81,-121.54 627.22,-121.95 629.78,-128.46"/>
<text text-anchor="middle" x="656.5" y="-144.8" font-family="Times,serif" font-size="14.00">kh:hasParticipant</text>
</g>
<!-- owl:NamedIndividual -->
<g id="node3" class="node">
<title>owl:NamedIndividual</title>
<polygon fill="none" stroke="#b27c7c" points="615.5,-36 447.5,-36 447.5,0 615.5,0 615.5,-36"/>
<text text-anchor="middle" x="531.5" y="-14.3" font-family="Times,serif" font-size="14.00">owl:NamedIndividual</text>
</g>
<!-- kh:schematicRelation_108&#45;&gt;owl:NamedIndividual -->
<g id="edge2" class="edge">
<title>kh:schematicRelation_108&#45;&gt;owl:NamedIndividual</title>
<path fill="none" stroke="black" d="M407.51,-173.69C404.66,-151.77 402.96,-113.63 419.5,-87 432.25,-66.46 453.72,-51.26 474.47,-40.5"/>
<polygon fill="black" stroke="black" points="476.17,-43.56 483.6,-36.01 473.08,-37.28 476.17,-43.56"/>
<text text-anchor="middle" x="448.5" y="-101.3" font-family="Times,serif" font-size="14.00">rdf:type</text>
</g>
<!-- kh:person_16 -->
<g id="node10" class="node">
<title>kh:person_16</title>
<polygon fill="none" stroke="#b27c7c" points="598.5,-123 486.5,-123 486.5,-87 598.5,-87 598.5,-123"/>
<text text-anchor="middle" x="542.5" y="-101.3" font-family="Times,serif" font-size="14.00">kh:person_16</text>
</g>
<!-- kh:schematicRelation_108&#45;&gt;kh:person_16 -->
<g id="edge15" class="edge">
<title>kh:schematicRelation_108&#45;&gt;kh:person_16</title>
<path fill="none" stroke="black" d="M418.72,-173.62C424.58,-162.9 433.37,-149.61 444.5,-141 454.05,-133.62 465.28,-127.7 476.68,-123"/>
<polygon fill="black" stroke="black" points="478.17,-126.17 486.25,-119.32 475.66,-119.64 478.17,-126.17"/>
<text text-anchor="middle" x="507.5" y="-144.8" font-family="Times,serif" font-size="14.00">kh:hasParticipant</text>
</g>
<!-- kh:Started -->
<g id="node13" class="node">
<title>kh:Started</title>
<polygon fill="none" stroke="#b27c7c" points="361.5,-123 269.5,-123 269.5,-87 361.5,-87 361.5,-123"/>
<text text-anchor="middle" x="315.5" y="-101.3" font-family="Times,serif" font-size="14.00">kh:Started</text>
</g>
<!-- kh:schematicRelation_108&#45;&gt;kh:Started -->
<g id="edge8" class="edge">
<title>kh:schematicRelation_108&#45;&gt;kh:Started</title>
<path fill="none" stroke="black" d="M314.69,-173.87C306.91,-169.21 299.96,-163.35 294.5,-156 289.2,-148.86 290.67,-140.18 294.63,-132.07"/>
<polygon fill="black" stroke="black" points="297.77,-133.64 299.94,-123.27 291.78,-130.03 297.77,-133.64"/>
<text text-anchor="middle" x="345.5" y="-144.8" font-family="Times,serif" font-size="14.00">kh:eventMode</text>
</g>
<!-- kh:Approach -->
<g id="node15" class="node">
<title>kh:Approach</title>
<polygon fill="none" stroke="#b27c7c" points="251.5,-123 145.5,-123 145.5,-87 251.5,-87 251.5,-123"/>
<text text-anchor="middle" x="198.5" y="-101.3" font-family="Times,serif" font-size="14.00">kh:Approach</text>
</g>
<!-- kh:schematicRelation_108&#45;&gt;kh:Approach -->
<g id="edge16" class="edge">
<title>kh:schematicRelation_108&#45;&gt;kh:Approach</title>
<path fill="none" stroke="black" d="M308.85,-178.54C275.33,-172.92 243.14,-165.4 229.5,-156 221.1,-150.21 214.54,-141.33 209.65,-132.65"/>
<polygon fill="black" stroke="black" points="212.65,-130.81 205.01,-123.46 206.4,-133.97 212.65,-130.81"/>
<text text-anchor="middle" x="258.5" y="-144.8" font-family="Times,serif" font-size="14.00">rdf:type</text>
</g>
<!-- kh:dog_13&#45;&gt;owl:NamedIndividual -->
<g id="edge12" class="edge">
<title>kh:dog_13&#45;&gt;owl:NamedIndividual</title>
<path fill="none" stroke="black" d="M651.94,-86.8C628.53,-73.62 596.06,-55.34 570.73,-41.08"/>
<polygon fill="black" stroke="black" points="572.18,-37.89 561.75,-36.03 568.75,-43.99 572.18,-37.89"/>
<text text-anchor="middle" x="645.5" y="-57.8" font-family="Times,serif" font-size="14.00">rdf:type</text>
</g>
<!-- kh:dog -->
<g id="node14" class="node">
<title>kh:dog</title>
<polygon fill="none" stroke="#b27c7c" points="726,-36 661,-36 661,0 726,0 726,-36"/>
<text text-anchor="middle" x="693.5" y="-14.3" font-family="Times,serif" font-size="14.00">kh:dog</text>
</g>
<!-- kh:dog_13&#45;&gt;kh:dog -->
<g id="edge11" class="edge">
<title>kh:dog_13&#45;&gt;kh:dog</title>
<path fill="none" stroke="black" d="M684.73,-86.8C686.23,-75.16 688.25,-59.55 689.98,-46.24"/>
<polygon fill="black" stroke="black" points="693.46,-46.54 691.28,-36.18 686.52,-45.64 693.46,-46.54"/>
<text text-anchor="middle" x="718.5" y="-57.8" font-family="Times,serif" font-size="14.00">rdf:type</text>
</g>
<!-- kh:hasParticipant -->
<g id="node4" class="node">
<title>kh:hasParticipant</title>
<polygon fill="none" stroke="#b27c7c" points="1492.5,-210 1350.5,-210 1350.5,-174 1492.5,-174 1492.5,-210"/>
<text text-anchor="middle" x="1421.5" y="-188.3" font-family="Times,serif" font-size="14.00">kh:hasParticipant</text>
</g>
<!-- owl:ObjectProperty -->
<g id="node5" class="node">
<title>owl:ObjectProperty</title>
<polygon fill="none" stroke="#b27c7c" points="1499,-123 1344,-123 1344,-87 1499,-87 1499,-123"/>
<text text-anchor="middle" x="1421.5" y="-101.3" font-family="Times,serif" font-size="14.00">owl:ObjectProperty</text>
</g>
<!-- kh:hasParticipant&#45;&gt;owl:ObjectProperty -->
<g id="edge3" class="edge">
<title>kh:hasParticipant&#45;&gt;owl:ObjectProperty</title>
<path fill="none" stroke="black" d="M1421.5,-173.8C1421.5,-162.16 1421.5,-146.55 1421.5,-133.24"/>
<polygon fill="black" stroke="black" points="1425,-133.18 1421.5,-123.18 1418,-133.18 1425,-133.18"/>
<text text-anchor="middle" x="1450.5" y="-144.8" font-family="Times,serif" font-size="14.00">rdf:type</text>
</g>
<!-- kh:image_0 -->
<g id="node6" class="node">
<title>kh:image_0</title>
<polygon fill="none" stroke="#b27c7c" points="127.5,-123 29.5,-123 29.5,-87 127.5,-87 127.5,-123"/>
<text text-anchor="middle" x="78.5" y="-101.3" font-family="Times,serif" font-size="14.00">kh:image_0</text>
</g>
<!-- kh:image_0&#45;&gt;owl:NamedIndividual -->
<g id="edge18" class="edge">
<title>kh:image_0&#45;&gt;owl:NamedIndividual</title>
<path fill="none" stroke="black" d="M127.71,-88.9C130.67,-88.21 133.62,-87.56 136.5,-87 214.98,-71.69 240.1,-95.59 315.5,-69 327.01,-64.94 327.16,-58.51 338.5,-54 369.48,-41.68 404.99,-33.66 437.04,-28.46"/>
<polygon fill="black" stroke="black" points="437.96,-31.86 447.31,-26.87 436.89,-24.94 437.96,-31.86"/>
<text text-anchor="middle" x="367.5" y="-57.8" font-family="Times,serif" font-size="14.00">rdf:type</text>
</g>
<!-- 25.88 -->
<g id="node7" class="node">
<title>25.88</title>
<polygon fill="none" stroke="#b27c7c" points="57,-36 0,-36 0,0 57,0 57,-36"/>
<text text-anchor="middle" x="28.5" y="-14.3" font-family="Times,serif" font-size="14.00">25.88</text>
</g>
<!-- kh:image_0&#45;&gt;25.88 -->
<g id="edge4" class="edge">
<title>kh:image_0&#45;&gt;25.88</title>
<path fill="none" stroke="black" d="M46.15,-86.68C39.92,-81.81 34.19,-75.91 30.5,-69 26.84,-62.15 25.5,-53.99 25.29,-46.27"/>
<polygon fill="black" stroke="black" points="28.79,-46.28 25.61,-36.17 21.8,-46.06 28.79,-46.28"/>
<text text-anchor="middle" x="61" y="-57.8" font-family="Times,serif" font-size="14.00">kh:hasId</text>
</g>
<!-- kh:Image -->
<g id="node12" class="node">
<title>kh:Image</title>
<polygon fill="none" stroke="#b27c7c" points="158,-36 75,-36 75,0 158,0 158,-36"/>
<text text-anchor="middle" x="116.5" y="-14.3" font-family="Times,serif" font-size="14.00">kh:Image</text>
</g>
<!-- kh:image_0&#45;&gt;kh:Image -->
<g id="edge7" class="edge">
<title>kh:image_0&#45;&gt;kh:Image</title>
<path fill="none" stroke="black" d="M86.19,-86.8C91.5,-74.93 98.65,-58.93 104.68,-45.45"/>
<polygon fill="black" stroke="black" points="107.94,-46.73 108.82,-36.18 101.54,-43.88 107.94,-46.73"/>
<text text-anchor="middle" x="129.5" y="-57.8" font-family="Times,serif" font-size="14.00">rdf:type</text>
</g>
<!-- kh:schematicRelation_106 -->
<g id="node8" class="node">
<title>kh:schematicRelation_106</title>
<polygon fill="none" stroke="#b27c7c" points="1133,-210 930,-210 930,-174 1133,-174 1133,-210"/>
<text text-anchor="middle" x="1031.5" y="-188.3" font-family="Times,serif" font-size="14.00">kh:schematicRelation_106</text>
</g>
<!-- kh:schematicRelation_106&#45;&gt;kh:dog_13 -->
<g id="edge13" class="edge">
<title>kh:schematicRelation_106&#45;&gt;kh:dog_13</title>
<path fill="none" stroke="black" d="M944.12,-173.93C926.34,-169.14 908.03,-163.21 891.5,-156 880.31,-151.12 879.82,-145.55 868.5,-141 826.28,-124.04 775.31,-115.19 737.41,-110.63"/>
<polygon fill="black" stroke="black" points="737.42,-107.11 727.08,-109.46 736.63,-114.07 737.42,-107.11"/>
<text text-anchor="middle" x="954.5" y="-144.8" font-family="Times,serif" font-size="14.00">kh:hasParticipant</text>
</g>
<!-- kh:schematicRelation_106&#45;&gt;owl:NamedIndividual -->
<g id="edge14" class="edge">
<title>kh:schematicRelation_106&#45;&gt;owl:NamedIndividual</title>
<path fill="none" stroke="black" d="M1030.68,-173.7C1029.3,-163.01 1025.86,-149.72 1017.5,-141 931.46,-51.17 872.41,-83.2 751.5,-54 727.8,-48.28 674.1,-39.7 625.68,-32.47"/>
<polygon fill="black" stroke="black" points="626.17,-29.01 615.76,-31 625.14,-35.93 626.17,-29.01"/>
<text text-anchor="middle" x="1027.5" y="-101.3" font-family="Times,serif" font-size="14.00">rdf:type</text>
</g>
<!-- kh:Ended -->
<g id="node9" class="node">
<title>kh:Ended</title>
<polygon fill="none" stroke="#b27c7c" points="1191.5,-123 1107.5,-123 1107.5,-87 1191.5,-87 1191.5,-123"/>
<text text-anchor="middle" x="1149.5" y="-101.3" font-family="Times,serif" font-size="14.00">kh:Ended</text>
</g>
<!-- kh:schematicRelation_106&#45;&gt;kh:Ended -->
<g id="edge5" class="edge">
<title>kh:schematicRelation_106&#45;&gt;kh:Ended</title>
<path fill="none" stroke="black" d="M1055.38,-173.8C1073.21,-160.95 1097.78,-143.26 1117.34,-129.17"/>
<polygon fill="black" stroke="black" points="1119.59,-131.86 1125.66,-123.18 1115.5,-126.18 1119.59,-131.86"/>
<text text-anchor="middle" x="1148.5" y="-144.8" font-family="Times,serif" font-size="14.00">kh:eventMode</text>
</g>
<!-- kh:schematicRelation_106&#45;&gt;kh:person_16 -->
<g id="edge9" class="edge">
<title>kh:schematicRelation_106&#45;&gt;kh:person_16</title>
<path fill="none" stroke="black" d="M929.67,-184.72C859.18,-179.26 772.21,-170 738.5,-156 728.56,-151.87 729.27,-145.5 719.5,-141 719.5,-141 658.73,-128.98 608.41,-119.03"/>
<polygon fill="black" stroke="black" points="608.99,-115.58 598.5,-117.07 607.63,-122.45 608.99,-115.58"/>
<text text-anchor="middle" x="801.5" y="-144.8" font-family="Times,serif" font-size="14.00">kh:hasParticipant</text>
</g>
<!-- kh:Departure -->
<g id="node16" class="node">
<title>kh:Departure</title>
<polygon fill="none" stroke="#b27c7c" points="1325.5,-123 1213.5,-123 1213.5,-87 1325.5,-87 1325.5,-123"/>
<text text-anchor="middle" x="1269.5" y="-101.3" font-family="Times,serif" font-size="14.00">kh:Departure</text>
</g>
<!-- kh:schematicRelation_106&#45;&gt;kh:Departure -->
<g id="edge17" class="edge">
<title>kh:schematicRelation_106&#45;&gt;kh:Departure</title>
<path fill="none" stroke="black" d="M1133.01,-178.16C1156.79,-173.05 1181.56,-165.92 1203.5,-156 1217.94,-149.47 1232.18,-139.29 1243.72,-129.82"/>
<polygon fill="black" stroke="black" points="1246.26,-132.26 1251.61,-123.11 1241.72,-126.92 1246.26,-132.26"/>
<text text-anchor="middle" x="1257.5" y="-144.8" font-family="Times,serif" font-size="14.00">rdf:type</text>
</g>
<!-- kh:person_16&#45;&gt;owl:NamedIndividual -->
<g id="edge10" class="edge">
<title>kh:person_16&#45;&gt;owl:NamedIndividual</title>
<path fill="none" stroke="black" d="M536.62,-86.75C534.97,-81.15 533.38,-74.87 532.5,-69 531.41,-61.73 530.93,-53.8 530.78,-46.44"/>
<polygon fill="black" stroke="black" points="534.28,-46.21 530.75,-36.22 527.28,-46.22 534.28,-46.21"/>
<text text-anchor="middle" x="561.5" y="-57.8" font-family="Times,serif" font-size="14.00">rdf:type</text>
</g>
<!-- kh:person -->
<g id="node11" class="node">
<title>kh:person</title>
<polygon fill="none" stroke="#b27c7c" points="300,-36 213,-36 213,0 300,0 300,-36"/>
<text text-anchor="middle" x="256.5" y="-14.3" font-family="Times,serif" font-size="14.00">kh:person</text>
</g>
<!-- kh:person_16&#45;&gt;kh:person -->
<g id="edge6" class="edge">
<title>kh:person_16&#45;&gt;kh:person</title>
<path fill="none" stroke="black" d="M486.49,-89.59C481.78,-88.62 477.07,-87.74 472.5,-87 448.84,-83.16 273.9,-86.48 257.5,-69 251.9,-63.03 250.29,-54.69 250.49,-46.52"/>
<polygon fill="black" stroke="black" points="253.98,-46.77 251.54,-36.46 247.02,-46.04 253.98,-46.77"/>
<text text-anchor="middle" x="286.5" y="-57.8" font-family="Times,serif" font-size="14.00">rdf:type</text>
</g>
<!-- kh:hasId -->
<g id="node17" class="node">
<title>kh:hasId</title>
<polygon fill="none" stroke="#b27c7c" points="1643,-210 1566,-210 1566,-174 1643,-174 1643,-210"/>
<text text-anchor="middle" x="1604.5" y="-188.3" font-family="Times,serif" font-size="14.00">kh:hasId</text>
</g>
<!-- owl:DatatypeProperty -->
<g id="node18" class="node">
<title>owl:DatatypeProperty</title>
<polygon fill="none" stroke="#b27c7c" points="1691.5,-123 1517.5,-123 1517.5,-87 1691.5,-87 1691.5,-123"/>
<text text-anchor="middle" x="1604.5" y="-101.3" font-family="Times,serif" font-size="14.00">owl:DatatypeProperty</text>
</g>
<!-- kh:hasId&#45;&gt;owl:DatatypeProperty -->
<g id="edge19" class="edge">
<title>kh:hasId&#45;&gt;owl:DatatypeProperty</title>
<path fill="none" stroke="black" d="M1604.5,-173.8C1604.5,-162.16 1604.5,-146.55 1604.5,-133.24"/>
<polygon fill="black" stroke="black" points="1608,-133.18 1604.5,-123.18 1601,-133.18 1608,-133.18"/>
<text text-anchor="middle" x="1633.5" y="-144.8" font-family="Times,serif" font-size="14.00">rdf:type</text>
</g>
</g>
</svg>
